<svg width="24" height="28" viewBox="0 0 24 28" fill="none" xmlns="http://www.w3.org/2000/svg">
<path d="M19.2999 14.8903C19.328 12.7288 20.5 10.6836 22.3592 9.55149C21.1863 7.89236 19.2218 6.84043 17.1778 6.77709C14.9978 6.55045 12.8844 8.06913 11.7735 8.06913C10.6411 8.06913 8.93066 6.79959 7.08884 6.83712C4.6881 6.91395 2.45001 8.26584 1.282 10.3447C-1.22876 14.6502 0.644039 20.9778 3.04914 24.458C4.25246 26.1622 5.65879 28.0658 7.49896 27.9983C9.29967 27.9243 9.9722 26.861 12.1458 26.861C14.2992 26.861 14.9302 27.9983 16.8077 27.9553C18.74 27.9243 19.9574 26.2436 21.1185 24.5233C21.9831 23.309 22.6484 21.967 23.0897 20.5469C20.819 19.5956 19.3026 17.3323 19.2999 14.8903Z" fill="black"/>
<path d="M15.7536 4.48832C16.8071 3.23566 17.3262 1.62558 17.2005 0C15.5909 0.167441 14.1041 0.929367 13.0363 2.13397C11.9922 3.31092 11.4488 4.89268 11.5516 6.45612C13.1617 6.47254 14.7446 5.73127 15.7536 4.48832Z" fill="black"/>
</svg>
